<svg xmlns="http://www.w3.org/2000/svg" width="1573.556" height="771.002" viewBox="0 0 1573.556 771.002"><defs><style>.a{fill:#229de8;}.b{opacity:0.04;}.c{fill:#fff;}</style></defs><g transform="translate(11 2.002)"><rect class="a" width="1546" height="769" transform="translate(-11)"/><g class="b" transform="translate(-1.556 129.497)"><path class="c" d="M415.044,158.5H334.326v92.826H241.5v80.718h92.826v92.826h80.718V332.042H507.87V251.324H415.044Z" transform="translate(83.39 53.175)"/><path class="c" d="M284.531,264.14h92.826V171.314H538.793V264.14h46.815c16.773-26.906,26.5-57.409,26.5-90.848,0-93.205-75.543-168.779-168.729-168.779A168.494,168.494,0,0,0,306.056,75.2,168.744,168.744,0,1,0,38.071,280.048L306.056,604.5l71.3-86.327v-92.6H284.531Z" transform="translate(0 0)"/></g><g class="b" transform="translate(950.444 -6.503)"><path class="c" d="M415.044,158.5H334.326v92.826H241.5v80.718h92.826v92.826h80.718V332.042H507.87V251.324H415.044Z" transform="translate(83.39 53.175)"/><path class="c" d="M284.531,264.14h92.826V171.314H538.793V264.14h46.815c16.773-26.906,26.5-57.409,26.5-90.848,0-93.205-75.543-168.779-168.729-168.779A168.494,168.494,0,0,0,306.056,75.2,168.744,168.744,0,1,0,38.071,280.048L306.056,604.5l71.3-86.327v-92.6H284.531Z" transform="translate(0 0)"/></g></g></svg>